<mxfile host="app.diagrams.net" agent="Mozilla/5.0 (Windows NT 10.0; Win64; x64) AppleWebKit/537.36 (KHTML, like Gecko) Chrome/136.0.0.0 Safari/537.36 Edg/136.0.0.0" version="26.2.15">
  <diagram name="第 1 页" id="2sAx9AXLeYC6tI_4LHs7">
    <mxGraphModel dx="831" dy="436" grid="1" gridSize="10" guides="1" tooltips="1" connect="1" arrows="1" fold="1" page="1" pageScale="1" pageWidth="827" pageHeight="1169" math="0" shadow="0">
      <root>
        <mxCell id="0" />
        <mxCell id="1" parent="0" />
        <mxCell id="lmtqf_m4gN5rXmpdiyPo-1" value="" style="shape=actor;whiteSpace=wrap;html=1;" vertex="1" parent="1">
          <mxGeometry x="65" y="245" width="40" height="60" as="geometry" />
        </mxCell>
        <mxCell id="lmtqf_m4gN5rXmpdiyPo-2" value="" style="endArrow=classic;html=1;rounded=0;" edge="1" parent="1">
          <mxGeometry width="50" height="50" relative="1" as="geometry">
            <mxPoint x="110" y="284.5" as="sourcePoint" />
            <mxPoint x="180" y="284.5" as="targetPoint" />
          </mxGeometry>
        </mxCell>
        <mxCell id="lmtqf_m4gN5rXmpdiyPo-6" value="" style="edgeStyle=orthogonalEdgeStyle;rounded=0;orthogonalLoop=1;jettySize=auto;html=1;" edge="1" parent="1" source="lmtqf_m4gN5rXmpdiyPo-3" target="lmtqf_m4gN5rXmpdiyPo-5">
          <mxGeometry relative="1" as="geometry" />
        </mxCell>
        <mxCell id="lmtqf_m4gN5rXmpdiyPo-3" value="查看首页" style="ellipse;whiteSpace=wrap;html=1;" vertex="1" parent="1">
          <mxGeometry x="180" y="260" width="90" height="50" as="geometry" />
        </mxCell>
        <mxCell id="lmtqf_m4gN5rXmpdiyPo-4" value="&lt;font style=&quot;font-size: 12px;&quot; face=&quot;Times New Roman&quot;&gt;用户&lt;/font&gt;" style="text;html=1;align=center;verticalAlign=middle;resizable=0;points=[];autosize=1;strokeColor=none;fillColor=none;" vertex="1" parent="1">
          <mxGeometry x="65" y="310" width="50" height="30" as="geometry" />
        </mxCell>
        <mxCell id="lmtqf_m4gN5rXmpdiyPo-11" style="edgeStyle=orthogonalEdgeStyle;rounded=0;orthogonalLoop=1;jettySize=auto;html=1;exitX=0.5;exitY=0;exitDx=0;exitDy=0;" edge="1" parent="1" source="lmtqf_m4gN5rXmpdiyPo-5">
          <mxGeometry relative="1" as="geometry">
            <mxPoint x="520" y="220" as="targetPoint" />
            <Array as="points">
              <mxPoint x="380" y="220" />
            </Array>
          </mxGeometry>
        </mxCell>
        <mxCell id="lmtqf_m4gN5rXmpdiyPo-16" style="edgeStyle=orthogonalEdgeStyle;rounded=0;orthogonalLoop=1;jettySize=auto;html=1;exitX=0.5;exitY=1;exitDx=0;exitDy=0;entryX=0.5;entryY=1;entryDx=0;entryDy=0;" edge="1" parent="1" source="lmtqf_m4gN5rXmpdiyPo-5" target="lmtqf_m4gN5rXmpdiyPo-3">
          <mxGeometry relative="1" as="geometry" />
        </mxCell>
        <mxCell id="lmtqf_m4gN5rXmpdiyPo-5" value="是否登录" style="rhombus;whiteSpace=wrap;html=1;" vertex="1" parent="1">
          <mxGeometry x="340" y="245" width="80" height="80" as="geometry" />
        </mxCell>
        <mxCell id="lmtqf_m4gN5rXmpdiyPo-8" value="是" style="text;html=1;align=center;verticalAlign=middle;resizable=0;points=[];autosize=1;strokeColor=none;fillColor=none;" vertex="1" parent="1">
          <mxGeometry x="380" y="215" width="40" height="30" as="geometry" />
        </mxCell>
        <mxCell id="lmtqf_m4gN5rXmpdiyPo-9" value="否" style="text;html=1;align=center;verticalAlign=middle;resizable=0;points=[];autosize=1;strokeColor=none;fillColor=none;" vertex="1" parent="1">
          <mxGeometry x="380" y="325" width="40" height="30" as="geometry" />
        </mxCell>
        <mxCell id="lmtqf_m4gN5rXmpdiyPo-15" value="功能使用" style="rounded=0;whiteSpace=wrap;html=1;" vertex="1" parent="1">
          <mxGeometry x="520" y="200" width="120" height="40" as="geometry" />
        </mxCell>
      </root>
    </mxGraphModel>
  </diagram>
</mxfile>
